<?xml version="1.0" standalone="no"?>
<!DOCTYPE svg PUBLIC "-//W3C//DTD SVG 20010904//EN"
 "http://www.w3.org/TR/2001/REC-SVG-20010904/DTD/svg10.dtd">
<svg version="1.0" xmlns="http://www.w3.org/2000/svg"
 width="700.000000pt" height="700.000000pt" viewBox="0 0 700.000000 700.000000"
 preserveAspectRatio="xMidYMid meet">
<metadata>
Created by potrace 1.14, written by Peter Selinger 2001-2017
</metadata>
<g transform="translate(0.000000,700.000000) scale(0.100000,-0.100000)"
fill="#000000" stroke="none">
<path d="M972 6334 c-163 -37 -287 -167 -309 -324 -5 -30 -8 -1171 -7 -2535 1
-1945 4 -2490 13 -2525 38 -135 145 -242 281 -281 36 -10 557 -13 2535 -14
2489 -1 2499 -1 2610 28 6 2 31 15 57 30 99 59 171 168 185 283 5 32 8 1173 7
2534 -1 1958 -4 2484 -13 2520 -39 136 -146 243 -281 281 -60 16 -5006 20
-5078 3z m2303 -436 c5 -5 8 -476 6 -805 l-1 -63 -1093 0 -1093 0 1 438 c1
240 3 437 4 437 27 5 2171 -2 2176 -7z m2631 -428 l-1 -435 -1092 -3 -1093 -2
0 62 c-1 96 -1 664 0 743 l0 71 1093 -1 1093 0 0 -435z m-2626 -945 c1 -105 1
-724 1 -770 l-1 -40 -1086 2 c-597 0 -1089 4 -1092 8 -9 9 -10 859 -1 865 4 3
496 5 1093 5 l1086 0 0 -70z m2621 66 c3 -1 5 -197 5 -436 l0 -435 -40 0
c-268 -4 -2139 -1 -2142 3 -4 3 -7 633 -5 832 l1 40 1087 -2 c599 0 1090 -1
1094 -2z m-2625 -1314 c8 -7 7 -857 -1 -865 -3 -3 -495 -6 -1094 -7 l-1087 0
0 437 0 437 45 3 c79 5 2132 0 2137 -5z m2619 0 c9 -4 11 -112 11 -438 l-1
-433 -1088 -1 c-599 0 -1091 3 -1093 7 -3 5 -7 664 -5 830 l1 37 53 3 c83 5
2108 0 2122 -5z m-2614 -1349 c3 -247 -1 -822 -6 -827 -7 -6 -2139 -12 -2166
-5 -14 4 -15 52 -14 437 1 237 3 433 4 435 0 1 491 2 1091 2 l1090 0 1 -42z
m2625 -395 l-1 -438 -1088 0 c-599 -1 -1091 3 -1093 7 -4 6 -8 797 -4 861 0 4
492 7 1093 7 l1093 0 0 -437z"/>
</g>
</svg>
